<svg width="453" height="320" viewBox="0 0 453 320" fill="none" xmlns="http://www.w3.org/2000/svg">
<g filter="url(#filter0_d_714_1111)">
<path d="M171 304C250.529 304 315 239.529 315 160C315 80.471 250.529 16 171 16C91.471 16 27 80.471 27 160C27 239.529 91.471 304 171 304Z" fill="#F2F2F2"/>
<path d="M194.108 181.957C162.401 230.834 171.089 293 171.089 293C171.089 293 231.184 275.92 262.892 227.043C294.599 178.166 285.911 116 285.911 116C285.911 116 225.816 133.08 194.108 181.957Z" fill="#3F3D56"/>
<path d="M170.991 292C170.991 292 170.215 291.877 168.786 291.589C167.646 291.359 166.077 291.03 164.16 290.578C147.029 286.558 101.485 272.969 71.7083 237.241C34.4401 192.503 36.0095 130 36.0095 130C36.0095 130 92.9938 139.216 130.543 179.391C132.17 181.117 133.753 182.907 135.292 184.759C167.72 223.685 170.743 276.06 170.983 289.008C171.016 290.948 170.991 292 170.991 292Z" fill="#222F65"/>
<path fill-rule="evenodd" clip-rule="evenodd" d="M147.892 181.957C179.599 230.834 170.911 293 170.911 293C170.911 293 110.816 275.92 79.1083 227.043C47.4009 178.166 56.0888 116 56.0888 116C56.0888 116 116.184 133.08 147.892 181.957Z" stroke="#3F3D56" stroke-width="2"/>
<path opacity="0.1" d="M171 290.056C170.16 291.071 169.419 291.938 168.81 292.648C167.459 294.191 166.693 295 166.693 295C166.693 295 165.763 293.828 164.199 291.632C155.61 279.631 127.984 236.959 130.117 187.668C130.232 185.084 130.422 182.528 130.685 180C132.307 181.733 133.886 183.53 135.42 185.39C167.747 224.471 170.761 277.056 171 290.056Z" fill="black"/>
<path d="M218.883 191.281C216.355 249.547 172.922 295 172.922 295C172.922 295 133.588 245.985 136.117 187.719C138.645 129.453 182.078 84 182.078 84C182.078 84 221.412 133.015 218.883 191.281Z" fill="#222F65"/>
<path d="M173 293L182 86" stroke="#3F3D56" stroke-width="2"/>
<path d="M226.5 312C349.383 312 449 305.732 449 298C449 290.268 349.383 284 226.5 284C103.617 284 4 290.268 4 298C4 305.732 103.617 312 226.5 312Z" fill="#3F3D56"/>
<path d="M41 293V237Z" fill="#3F3D56"/>
<path d="M41 293V237" stroke="#3F3D56" stroke-width="2"/>
<path d="M41 245C45.4183 245 49 241.418 49 237C49 232.582 45.4183 229 41 229C36.5817 229 33 232.582 33 237C33 241.418 36.5817 245 41 245Z" fill="#3F3D56"/>
<path d="M41 272C41 272 39.8837 247.368 17 250.232Z" fill="#3F3D56"/>
<path d="M232 202V46Z" fill="#3F3D56"/>
<path d="M232 202V46" stroke="#3F3D56" stroke-width="2"/>
<path d="M232 58C238.075 58 243 53.0751 243 47C243 40.9249 238.075 36 232 36C225.925 36 221 40.9249 221 47C221 53.0751 225.925 58 232 58Z" fill="#3F3D56"/>
<path d="M232 91C232 91 230.465 57.4116 199 61.3158Z" fill="#3F3D56"/>
<path d="M362.286 116L352.909 133.635C352.909 133.635 285.108 146.591 293.763 166.745C302.419 186.899 312.156 216.41 317.205 215.691C322.254 214.971 350.024 199.136 351.106 194.457C352.188 189.778 326.221 167.825 326.221 167.825L369.138 159.547C369.138 159.547 375.269 188.339 367.335 208.133C359.401 227.927 354.712 281.551 360.122 282.271C365.531 282.991 379.236 287.31 385.367 283.351C391.498 279.392 394.383 192.657 394.383 192.657C394.383 192.657 407.366 135.794 399.432 129.316C391.498 122.838 362.286 116 362.286 116Z" fill="#2F2E41"/>
<path d="M376.942 274.257C376.942 274.257 368.564 269.833 366.8 273.372C366.8 273.372 368.123 283.99 362.831 285.317C357.539 286.644 355.334 295.935 362.831 296.819C370.327 297.704 375.178 295.05 377.824 295.05C380.47 295.05 377.824 285.759 377.824 285.759L376.942 274.257Z" fill="#2F2E41"/>
<path d="M336.965 201.835C336.965 201.835 327.836 199.275 326.855 203.12C326.855 203.12 330.383 213.254 325.485 215.679C320.586 218.104 320.384 227.685 327.905 226.961C335.426 226.238 339.614 222.604 342.203 222.043C344.791 221.481 340.248 212.93 340.248 212.93L336.965 201.835Z" fill="#2F2E41"/>
<path d="M382.395 53.8587C382.395 53.8587 382.752 67.2887 380.258 68.3776C377.765 69.4665 394.15 76 394.15 76L397 70.9184C397 70.9184 393.794 52.7698 394.507 51.3179C395.219 49.866 382.395 53.8587 382.395 53.8587Z" fill="#9F616A"/>
<path d="M388 57C400.15 57 410 47.1503 410 35C410 22.8497 400.15 13 388 13C375.85 13 366 22.8497 366 35C366 47.1503 375.85 57 388 57Z" fill="#2F2E41"/>
<path d="M390 23C394.971 23 399 18.9706 399 14C399 9.02944 394.971 5 390 5C385.029 5 381 9.02944 381 14C381 18.9706 385.029 23 390 23Z" fill="#2F2E41"/>
<path d="M377.887 9C377.887 4.39243 381.389 0.529044 386 0.048663C385.687 0.016323 385.372 8.04062e-05 385.057 0C380.055 0 376 4.02944 376 9C376 13.9706 380.055 18 385.057 18C385.372 17.9999 385.687 17.9837 386 17.9513C381.389 17.471 377.887 13.6076 377.887 9V9Z" fill="#2F2E41"/>
<path d="M387 61C395.284 61 402 54.2843 402 46C402 37.7157 395.284 31 387 31C378.716 31 372 37.7157 372 46C372 54.2843 378.716 61 387 61Z" fill="#9F616A"/>
<path d="M398.251 65.8094C398.251 65.8094 385.297 69.7497 378.82 65.8094C372.343 61.869 356.87 73.3318 354.351 78.3468C351.832 83.3618 363.706 88.3768 363.706 88.3768C363.706 88.3768 360.316 98.0611 361.008 102.884C361.727 107.899 360.468 118.108 360.468 118.108C360.468 118.108 392.258 138.958 399.33 129.571C400.41 128.138 409.406 94.4664 409.406 94.4664L422 81.9289C422 81.9289 414.084 70.4661 409.406 69.3915C404.728 68.3169 398.251 65.8094 398.251 65.8094Z" fill="#D0CDE1"/>
<path d="M310.937 139C310.937 139 286.684 151.838 291.677 155.506C296.671 159.174 317 141.201 317 141.201L310.937 139Z" fill="#9F616A"/>
<path d="M406.922 129.939C406.922 129.939 395.927 122.222 394.156 126.08C392.386 129.939 406.195 138.627 409.103 135.227C412.01 131.827 406.922 129.939 406.922 129.939Z" fill="#9F616A"/>
<path d="M415.768 77L422.181 80.9883C422.181 80.9883 443.914 111.444 436.433 118.333C428.951 125.222 409.712 139 409.712 139C409.712 139 403.299 129.573 405.436 129.211C407.574 128.848 424.675 114.345 424.675 114.345L409.712 86.0643L415.768 77Z" fill="#D0CDE1"/>
<path d="M358.179 76L353.513 77.8105L341.308 99.8988L309 139.368C309 139.368 313.308 146.248 316.897 144.8C320.487 143.351 347.41 112.935 347.41 112.935L365 85.4147L358.179 76Z" fill="#D0CDE1"/>
<path d="M388.5 37C397.06 37 404 32.9706 404 28C404 23.0294 397.06 19 388.5 19C379.94 19 373 23.0294 373 28C373 32.9706 379.94 37 388.5 37Z" fill="#2F2E41"/>
<rect x="286" y="223" width="71" height="71" fill="#222F65"/>
<path fill-rule="evenodd" clip-rule="evenodd" d="M334.867 272.409C342.301 272.409 347 266.087 347 256.055C347 242.409 336.546 233 321.46 233C305.766 233 295 243.587 295 259.006C295 274.805 305.549 284.986 322.029 284.999C324.885 285.013 327.733 284.705 330.52 284.078C331.65 283.805 332.356 282.68 332.11 281.544C331.863 280.408 330.755 279.676 329.612 279.895C327.181 280.324 324.715 280.532 322.246 280.518C308.691 280.518 299.983 272.206 299.983 259.182C299.983 246.443 308.785 237.44 321.135 237.44C333.621 237.44 342.071 244.981 342.071 256.258C342.071 263.325 339.688 267.874 335.936 267.874C333.77 267.874 332.565 266.56 332.565 264.381V246.876H327.161V250.64H326.62C325.374 247.892 322.544 246.213 319.213 246.213C312.726 246.213 308.284 251.479 308.284 259.047C308.284 266.926 312.699 272.219 319.307 272.219C323.018 272.219 325.78 270.5 327.121 267.359H327.662C328.164 270.378 331.061 272.409 334.867 272.409ZM320.309 267.21C316.477 267.21 314.121 264.178 314.121 259.169C314.121 254.146 316.436 251.195 320.377 251.195C324.345 251.195 326.891 254.241 326.891 259.169C326.891 264.097 324.345 267.21 320.309 267.21Z" fill="white"/>
</g>
<defs>
<filter id="filter0_d_714_1111" x="0" y="0" width="453" height="320" filterUnits="userSpaceOnUse" color-interpolation-filters="sRGB">
<feFlood flood-opacity="0" result="BackgroundImageFix"/>
<feColorMatrix in="SourceAlpha" type="matrix" values="0 0 0 0 0 0 0 0 0 0 0 0 0 0 0 0 0 0 127 0" result="hardAlpha"/>
<feOffset dy="4"/>
<feGaussianBlur stdDeviation="2"/>
<feComposite in2="hardAlpha" operator="out"/>
<feColorMatrix type="matrix" values="0 0 0 0 0 0 0 0 0 0 0 0 0 0 0 0 0 0 0.25 0"/>
<feBlend mode="normal" in2="BackgroundImageFix" result="effect1_dropShadow_714_1111"/>
<feBlend mode="normal" in="SourceGraphic" in2="effect1_dropShadow_714_1111" result="shape"/>
</filter>
</defs>
</svg>
